<mxfile host="app.diagrams.net" modified="2022-04-17T05:05:34.937Z" agent="5.0 (X11; Linux x86_64) AppleWebKit/537.36 (KHTML, like Gecko) Chrome/99.0.4844.82 Safari/537.36" etag="ipv2M5SXeXbzfIpkRRa4" version="17.4.5" type="github">
  <diagram id="pXBOFfhLJG-TJBFwOfTS" name="第 1 页">
    <mxGraphModel dx="1501" dy="655" grid="0" gridSize="10" guides="1" tooltips="1" connect="1" arrows="1" fold="1" page="1" pageScale="1" pageWidth="1169" pageHeight="827" math="0" shadow="0">
      <root>
        <mxCell id="0" />
        <mxCell id="1" parent="0" />
        <mxCell id="OLDiFzRFW7hrUyXx9NCD-1" value="&lt;font style=&quot;font-size: 11px ; line-height: 1.2&quot;&gt;:商品管理界面&lt;/font&gt;" style="shape=umlLifeline;perimeter=lifelinePerimeter;whiteSpace=wrap;html=1;container=1;collapsible=0;recursiveResize=0;outlineConnect=0;rounded=1;shadow=0;comic=0;labelBackgroundColor=none;strokeWidth=1;fontFamily=Verdana;fontSize=12;align=center;" vertex="1" parent="1">
          <mxGeometry x="344" y="207" width="100" height="399" as="geometry" />
        </mxCell>
        <mxCell id="OLDiFzRFW7hrUyXx9NCD-2" value="" style="html=1;points=[];perimeter=orthogonalPerimeter;rounded=0;shadow=0;comic=0;labelBackgroundColor=none;strokeWidth=1;fontFamily=Verdana;fontSize=12;align=center;" vertex="1" parent="OLDiFzRFW7hrUyXx9NCD-1">
          <mxGeometry x="45" y="100" width="10" height="257" as="geometry" />
        </mxCell>
        <mxCell id="OLDiFzRFW7hrUyXx9NCD-3" value=":系统" style="shape=umlLifeline;perimeter=lifelinePerimeter;whiteSpace=wrap;html=1;container=1;collapsible=0;recursiveResize=0;outlineConnect=0;rounded=1;shadow=0;comic=0;labelBackgroundColor=none;strokeWidth=1;fontFamily=Verdana;fontSize=12;align=center;" vertex="1" parent="1">
          <mxGeometry x="504" y="207" width="100" height="335" as="geometry" />
        </mxCell>
        <mxCell id="OLDiFzRFW7hrUyXx9NCD-4" value="" style="html=1;points=[];perimeter=orthogonalPerimeter;rounded=0;shadow=0;comic=0;labelBackgroundColor=none;strokeWidth=1;fontFamily=Verdana;fontSize=12;align=center;" vertex="1" parent="OLDiFzRFW7hrUyXx9NCD-3">
          <mxGeometry x="45" y="129" width="10" height="206" as="geometry" />
        </mxCell>
        <mxCell id="OLDiFzRFW7hrUyXx9NCD-5" value=":DataBase" style="shape=umlLifeline;perimeter=lifelinePerimeter;whiteSpace=wrap;html=1;container=1;collapsible=0;recursiveResize=0;outlineConnect=0;rounded=1;shadow=0;comic=0;labelBackgroundColor=none;strokeWidth=1;fontFamily=Verdana;fontSize=12;align=center;" vertex="1" parent="1">
          <mxGeometry x="684" y="207" width="100" height="398" as="geometry" />
        </mxCell>
        <mxCell id="OLDiFzRFW7hrUyXx9NCD-6" value="" style="html=1;points=[];perimeter=orthogonalPerimeter;rounded=0;shadow=0;comic=0;labelBackgroundColor=none;strokeWidth=1;fontFamily=Verdana;fontSize=12;align=center;" vertex="1" parent="OLDiFzRFW7hrUyXx9NCD-5">
          <mxGeometry x="45" y="110" width="10" height="252" as="geometry" />
        </mxCell>
        <mxCell id="OLDiFzRFW7hrUyXx9NCD-9" value=":用户" style="shape=umlLifeline;perimeter=lifelinePerimeter;whiteSpace=wrap;html=1;container=1;collapsible=0;recursiveResize=0;outlineConnect=0;rounded=1;shadow=0;comic=0;labelBackgroundColor=none;strokeWidth=1;fontFamily=Verdana;fontSize=12;align=center;" vertex="1" parent="1">
          <mxGeometry x="204" y="207" width="100" height="395" as="geometry" />
        </mxCell>
        <mxCell id="OLDiFzRFW7hrUyXx9NCD-10" value="" style="html=1;points=[];perimeter=orthogonalPerimeter;rounded=0;shadow=0;comic=0;labelBackgroundColor=none;strokeWidth=1;fontFamily=Verdana;fontSize=12;align=center;" vertex="1" parent="OLDiFzRFW7hrUyXx9NCD-9">
          <mxGeometry x="45" y="100" width="10" height="260" as="geometry" />
        </mxCell>
        <mxCell id="OLDiFzRFW7hrUyXx9NCD-11" value="打开" style="html=1;verticalAlign=bottom;endArrow=block;entryX=0;entryY=0;labelBackgroundColor=none;fontFamily=Verdana;fontSize=12;edgeStyle=elbowEdgeStyle;elbow=vertical;" edge="1" parent="1" source="OLDiFzRFW7hrUyXx9NCD-10" target="OLDiFzRFW7hrUyXx9NCD-2">
          <mxGeometry relative="1" as="geometry">
            <mxPoint x="324" y="317" as="sourcePoint" />
          </mxGeometry>
        </mxCell>
        <mxCell id="OLDiFzRFW7hrUyXx9NCD-12" value="卖家" style="shape=umlActor;verticalLabelPosition=bottom;verticalAlign=top;html=1;outlineConnect=0;" vertex="1" parent="1">
          <mxGeometry x="239" y="119" width="30" height="60" as="geometry" />
        </mxCell>
        <mxCell id="OLDiFzRFW7hrUyXx9NCD-13" style="edgeStyle=orthogonalEdgeStyle;rounded=0;orthogonalLoop=1;jettySize=auto;html=1;entryX=-0.059;entryY=0.009;entryDx=0;entryDy=0;entryPerimeter=0;" edge="1" parent="1" source="OLDiFzRFW7hrUyXx9NCD-2" target="OLDiFzRFW7hrUyXx9NCD-4">
          <mxGeometry relative="1" as="geometry">
            <Array as="points">
              <mxPoint x="432" y="337" />
              <mxPoint x="432" y="337" />
            </Array>
          </mxGeometry>
        </mxCell>
        <mxCell id="OLDiFzRFW7hrUyXx9NCD-14" value="选择要下架的商品" style="edgeLabel;html=1;align=center;verticalAlign=middle;resizable=0;points=[];" vertex="1" connectable="0" parent="OLDiFzRFW7hrUyXx9NCD-13">
          <mxGeometry x="0.0769" y="1" relative="1" as="geometry">
            <mxPoint as="offset" />
          </mxGeometry>
        </mxCell>
        <mxCell id="OLDiFzRFW7hrUyXx9NCD-27" style="edgeStyle=orthogonalEdgeStyle;rounded=0;orthogonalLoop=1;jettySize=auto;html=1;entryX=0.066;entryY=0.253;entryDx=0;entryDy=0;entryPerimeter=0;" edge="1" parent="1" source="OLDiFzRFW7hrUyXx9NCD-4" target="OLDiFzRFW7hrUyXx9NCD-6">
          <mxGeometry relative="1" as="geometry">
            <Array as="points">
              <mxPoint x="596" y="381" />
              <mxPoint x="596" y="381" />
            </Array>
          </mxGeometry>
        </mxCell>
        <mxCell id="OLDiFzRFW7hrUyXx9NCD-28" value="查询该商品是否&lt;br&gt;满足下架条件" style="edgeLabel;html=1;align=center;verticalAlign=middle;resizable=0;points=[];" vertex="1" connectable="0" parent="OLDiFzRFW7hrUyXx9NCD-27">
          <mxGeometry x="-0.1614" y="-2" relative="1" as="geometry">
            <mxPoint x="10" y="-1" as="offset" />
          </mxGeometry>
        </mxCell>
        <mxCell id="OLDiFzRFW7hrUyXx9NCD-29" style="edgeStyle=orthogonalEdgeStyle;rounded=0;orthogonalLoop=1;jettySize=auto;html=1;entryX=1.033;entryY=0.496;entryDx=0;entryDy=0;entryPerimeter=0;exitX=0.078;exitY=0.477;exitDx=0;exitDy=0;exitPerimeter=0;" edge="1" parent="1" source="OLDiFzRFW7hrUyXx9NCD-6" target="OLDiFzRFW7hrUyXx9NCD-4">
          <mxGeometry relative="1" as="geometry">
            <mxPoint x="560" y="449" as="targetPoint" />
            <Array as="points">
              <mxPoint x="726" y="437" />
            </Array>
          </mxGeometry>
        </mxCell>
        <mxCell id="OLDiFzRFW7hrUyXx9NCD-30" value="不满足下架条件&lt;br&gt;下架失败" style="edgeLabel;html=1;align=center;verticalAlign=middle;resizable=0;points=[];" vertex="1" connectable="0" parent="OLDiFzRFW7hrUyXx9NCD-29">
          <mxGeometry x="0.0882" y="2" relative="1" as="geometry">
            <mxPoint x="11" y="-3" as="offset" />
          </mxGeometry>
        </mxCell>
        <mxCell id="OLDiFzRFW7hrUyXx9NCD-31" style="edgeStyle=orthogonalEdgeStyle;rounded=0;orthogonalLoop=1;jettySize=auto;html=1;entryX=0.944;entryY=0.718;entryDx=0;entryDy=0;entryPerimeter=0;exitX=-0.024;exitY=0.66;exitDx=0;exitDy=0;exitPerimeter=0;" edge="1" parent="1" source="OLDiFzRFW7hrUyXx9NCD-6" target="OLDiFzRFW7hrUyXx9NCD-4">
          <mxGeometry relative="1" as="geometry">
            <Array as="points" />
          </mxGeometry>
        </mxCell>
        <mxCell id="OLDiFzRFW7hrUyXx9NCD-32" value="满足下架条件&lt;br&gt;下架成功" style="edgeLabel;html=1;align=center;verticalAlign=middle;resizable=0;points=[];" vertex="1" connectable="0" parent="OLDiFzRFW7hrUyXx9NCD-31">
          <mxGeometry x="0.1048" y="1" relative="1" as="geometry">
            <mxPoint x="9" as="offset" />
          </mxGeometry>
        </mxCell>
        <mxCell id="OLDiFzRFW7hrUyXx9NCD-33" style="edgeStyle=orthogonalEdgeStyle;rounded=0;orthogonalLoop=1;jettySize=auto;html=1;" edge="1" parent="1" source="OLDiFzRFW7hrUyXx9NCD-4">
          <mxGeometry relative="1" as="geometry">
            <mxPoint x="398" y="541" as="targetPoint" />
            <Array as="points">
              <mxPoint x="398" y="541" />
            </Array>
          </mxGeometry>
        </mxCell>
        <mxCell id="OLDiFzRFW7hrUyXx9NCD-35" value="返回结果" style="edgeLabel;html=1;align=center;verticalAlign=middle;resizable=0;points=[];" vertex="1" connectable="0" parent="OLDiFzRFW7hrUyXx9NCD-33">
          <mxGeometry x="0.0981" relative="1" as="geometry">
            <mxPoint x="11" y="1" as="offset" />
          </mxGeometry>
        </mxCell>
      </root>
    </mxGraphModel>
  </diagram>
</mxfile>
